<svg xmlns="http://www.w3.org/2000/svg" version="1.1" xmlns:xlink="http://www.w3.org/1999/xlink" xmlns:svgjs="http://svgjs.com/svgjs" width="1440" height="560" preserveAspectRatio="none" viewBox="0 0 1440 560"><g mask="url(&quot;#SvgjsMask1000&quot;)" fill="none"><rect width="1440" height="560" x="0" y="0" fill="#1e3266"></rect><path d="M1512 560L0 560 L0 306.77Q93.35 280.12, 120 373.46Q162.91 296.37, 240 339.27Q283.14 262.41, 360 305.56Q449.2 274.76, 480 363.97Q508.87 320.84, 552 349.71Q605.44 283.15, 672 336.6Q722.75 267.36, 792 318.11Q846.19 300.31, 864 354.5Q906.14 324.64, 936 366.78Q942.23 301, 1008 307.23Q1077.39 256.62, 1128 326.01Q1183.27 309.28, 1200 364.55Q1218.07 262.62, 1320 280.68Q1363.05 251.73, 1392 294.77Q1462.3 245.06, 1512 315.36z" fill="#182f5d"></path><path d="M1464 560L0 560 L0 366.79Q28.56 323.35, 72 351.9Q125.73 333.63, 144 387.36Q186 357.37, 216 399.37Q281.76 345.13, 336 410.89Q370.31 325.19, 456 359.5Q526.86 310.36, 576 381.21Q657.2 342.41, 696 423.62Q763.81 371.43, 816 439.24Q820.75 372, 888 376.75Q916.34 333.09, 960 361.43Q1016.78 346.21, 1032 402.98Q1099.56 350.54, 1152 418.1Q1195.57 389.67, 1224 433.24Q1250.97 340.22, 1344 367.19Q1409.06 312.25, 1464 377.31z" fill="#25467d"></path><path d="M1464 560L0 560 L0 465.24Q64.07 409.31, 120 473.39Q154.54 387.93, 240 422.47Q294.04 404.51, 312 458.55Q397.38 423.93, 432 509.31Q432.66 437.97, 504 438.62Q534.17 396.79, 576 426.96Q669.64 400.6, 696 494.24Q741.15 419.39, 816 464.54Q876.25 452.79, 888 513.04Q916.5 469.54, 960 498.05Q979.47 445.52, 1032 464.99Q1115.89 428.88, 1152 512.78Q1166.31 407.09, 1272 421.39Q1343.83 373.22, 1392 445.04Q1435.69 416.74, 1464 460.43z" fill="#356cb1"></path><path d="M1560 560L0 560 L0 553.71Q29.29 463, 120 492.29Q164.47 464.76, 192 509.23Q287.31 484.54, 312 579.85Q347.68 495.53, 432 531.2Q458.12 485.32, 504 511.43Q597.71 485.14, 624 578.85Q657.4 492.25, 744 525.65Q789.38 499.03, 816 544.41Q882.04 490.45, 936 556.49Q967.11 467.6, 1056 498.7Q1104.32 475.02, 1128 523.34Q1210.75 486.09, 1248 568.84Q1251.58 500.42, 1320 504Q1385.72 449.73, 1440 515.45Q1488.69 444.14, 1560 492.84z" fill="white"></path></g><defs><mask id="SvgjsMask1000"><rect width="1440" height="560" fill="#ffffff"></rect></mask></defs></svg>